<?xml version="1.0" encoding="iso-8859-1"?>
<!-- Generator: Adobe Illustrator 19.0.0, SVG Export Plug-In . SVG Version: 6.00 Build 0)  -->
<svg version="1.1" id="Layer_1" xmlns="http://www.w3.org/2000/svg" xmlns:xlink="http://www.w3.org/1999/xlink" x="0px" y="0px"
	 viewBox="0 0 419.906 419.906" style="enable-background:new 0 0 419.906 419.906;" xml:space="preserve">
<g>
	<g>
		<path d="M385.427,327.071c-16.436,0-30.213,11.563-33.647,26.979H148.75c-2.422-10.87-9.984-19.822-19.999-24.157l46.098-55.397
			h198.496c3.743,0,6.912-2.759,7.429-6.466l24.843-178.521c0.299-2.149-0.348-4.322-1.771-5.958
			c-1.425-1.636-3.487-2.576-5.657-2.576H79.463l-7.359-50.676c-0.535-3.688-3.696-6.422-7.422-6.422H7.5
			c-4.143,0-7.5,3.358-7.5,7.5c0,4.142,3.357,7.5,7.5,7.5h50.692l7.352,50.625c0,0.002,0,0.004,0,0.006L90.388,268.03
			c0.517,3.707,3.686,6.466,7.429,6.466h57.519l-43.914,52.773c-17.287,1.844-30.798,16.512-30.798,34.281
			c0,19.012,15.468,34.479,34.479,34.479c16.436,0,30.213-11.563,33.647-26.979h203.03c3.434,15.416,17.212,26.979,33.647,26.979
			c19.012,0,34.479-15.467,34.479-34.479S404.438,327.071,385.427,327.071z M104.345,259.496L81.59,95.975h307.981l-22.755,163.521
			H104.345z M115.103,381.03c-10.741,0-19.479-8.738-19.479-19.479c0-10.741,8.738-19.479,19.479-19.479
			c10.74,0,19.479,8.738,19.479,19.479C134.581,372.291,125.843,381.03,115.103,381.03z M385.427,381.03
			c-10.74,0-19.479-8.738-19.479-19.479c0-10.741,8.738-19.479,19.479-19.479c10.741,0,19.479,8.738,19.479,19.479
			C404.906,372.291,396.168,381.03,385.427,381.03z"/>
	</g>
</g>
<g>
	<g>
		<path d="M201.263,110.299c-18.262,0-33.119,14.857-33.119,33.119c0,18.262,14.857,33.119,33.119,33.119
			s33.119-14.858,33.119-33.119C234.382,125.156,219.525,110.299,201.263,110.299z M201.263,161.537
			c-9.991,0-18.119-8.129-18.119-18.119c0-9.991,8.128-18.119,18.119-18.119c9.991,0,18.119,8.128,18.119,18.119
			C219.382,153.409,211.254,161.537,201.263,161.537z"/>
	</g>
</g>
<g>
	<g>
		<path d="M269.898,178.935c-18.262,0-33.118,14.857-33.118,33.119c0,18.262,14.856,33.119,33.118,33.119
			c18.262,0,33.119-14.857,33.119-33.119C303.017,193.792,288.16,178.935,269.898,178.935z M269.898,230.173
			c-9.99,0-18.118-8.128-18.118-18.119c0-9.991,8.128-18.119,18.118-18.119c9.991,0,18.119,8.128,18.119,18.119
			C288.017,222.045,279.89,230.173,269.898,230.173z"/>
	</g>
</g>
<g>
	<g>
		<path d="M273.49,139.826c-2.93-2.929-7.678-2.929-10.607,0l-65.212,65.212c-2.929,2.929-2.929,7.678,0,10.606
			c1.465,1.464,3.385,2.197,5.304,2.197s3.839-0.732,5.304-2.197l65.212-65.212C276.419,147.504,276.419,142.755,273.49,139.826z"/>
	</g>
</g>
<g>
</g>
<g>
</g>
<g>
</g>
<g>
</g>
<g>
</g>
<g>
</g>
<g>
</g>
<g>
</g>
<g>
</g>
<g>
</g>
<g>
</g>
<g>
</g>
<g>
</g>
<g>
</g>
<g>
</g>
</svg>
