<svg xmlns="http://www.w3.org/2000/svg" xmlns:xlink="http://www.w3.org/1999/xlink" version="1.1" x="0px" y="0px" viewBox="0 0 194 445.82500000000005" style="enable-background:new 0 0 194 356.66;" xml:space="preserve"><g><g><path style="" d="    M181.226,91.43c0,0-22.898,229.455-24.085,237.82c-1.932,13.598-15.57,13.598-15.57,13.598" fill="none" stroke="#000000" stroke-width="9" stroke-linecap="round" stroke-linejoin="round" stroke-miterlimit="10"/><path style="" d="    M181.226,91.43c0,0-21.146,5.865-22.783,26.459c0,0-12.876,172.88-16.058,219.753c-0.627,9.242-4.799,14.518-9.116,14.518H96.934" fill="none" stroke="#000000" stroke-width="9" stroke-linecap="round" stroke-linejoin="round" stroke-miterlimit="10"/><path style="" d="    M12.641,91.43c0,0,22.898,229.455,24.085,237.82c1.931,13.598,15.569,13.598,15.569,13.598" fill="none" stroke="#000000" stroke-width="9" stroke-linecap="round" stroke-linejoin="round" stroke-miterlimit="10"/><path style="" d="    M12.641,91.43c0,0,21.146,5.865,22.783,26.459c0,0,12.876,172.88,16.058,219.753c0.627,9.242,4.798,14.518,9.116,14.518h36.335" fill="none" stroke="#000000" stroke-width="9" stroke-linecap="round" stroke-linejoin="round" stroke-miterlimit="10"/><line style="" x1="138.57" y1="149.36" x2="61.671" y2="245.826" fill="none" stroke="#000000" stroke-width="9" stroke-linecap="round" stroke-linejoin="round" stroke-miterlimit="10"/><line style="" x1="108.188" y1="149.36" x2="68.499" y2="197.592" fill="none" stroke="#000000" stroke-width="9" stroke-linecap="round" stroke-linejoin="round" stroke-miterlimit="10"/><path style="" d="    M117.648,223.363c-8.563,10.408-17.128,20.816-25.692,31.225" fill="none" stroke="#000000" stroke-width="9" stroke-linecap="round" stroke-linejoin="round" stroke-miterlimit="10"/><path style="" d="    M131.646,206.354c-1.185,1.438-2.367,2.877-3.551,4.314" fill="none" stroke="#000000" stroke-width="9" stroke-linecap="round" stroke-linejoin="round" stroke-miterlimit="10"/><line style="" x1="165.918" y1="9.007" x2="165.918" y2="44.795" fill="none" stroke="#000000" stroke-width="9" stroke-linecap="round" stroke-linejoin="round" stroke-miterlimit="10"/><line style="" x1="138.666" y1="38.412" x2="138.666" y2="5.802" fill="none" stroke="#000000" stroke-width="9" stroke-linecap="round" stroke-linejoin="round" stroke-miterlimit="10"/><path style="" d="    M17.922,49.868c0,0,17.381-66.91,163.304-38.215" fill="none" stroke="#000000" stroke-width="9" stroke-linecap="round" stroke-linejoin="round" stroke-miterlimit="10"/><polygon style="" points="    4.5,87.065 189.5,87.065 187.5,69.353 6.5,69.353   " fill="none" stroke="#000000" stroke-width="9" stroke-linecap="round" stroke-linejoin="round" stroke-miterlimit="10"/><path style="" d="    M15.741,69.353l2.18-19.485c0,0,31.356-13.462,78.532-13.462c47.178,0,78.533,13.462,78.533,13.462l2.18,19.485" fill="none" stroke="#000000" stroke-width="9" stroke-linecap="round" stroke-linejoin="round" stroke-miterlimit="10"/></g></g><text x="0" y="371.66" fill="#000000" font-size="5px" font-weight="bold" font-family="'Helvetica Neue', Helvetica, Arial-Unicode, Arial, Sans-serif"></text><text x="0" y="376.66" fill="#000000" font-size="5px" font-weight="bold" font-family="'Helvetica Neue', Helvetica, Arial-Unicode, Arial, Sans-serif"></text></svg>