<svg xmlns="http://www.w3.org/2000/svg" data-name="Layer 1" viewBox="0 0 100 125" x="0px" y="0px"><title>Artboard 19</title><path d="M27.11,25.1a11.8,11.8,0,1,0-11.8-11.8A11.81,11.81,0,0,0,27.11,25.1Zm0-18.6a6.8,6.8,0,1,1-6.8,6.8A6.81,6.81,0,0,1,27.11,6.5ZM9.71,31.17A10.85,10.85,0,0,0,7,39.64L9.45,57.78A9.5,9.5,0,0,0,14.23,65l3.88,28.41A5.73,5.73,0,0,0,23.8,98.5h6.61a5.71,5.71,0,0,0,5.68-5L40,65a9.46,9.46,0,0,0,4.78-7.19l2.42-18.23a10.81,10.81,0,0,0-10.74-12H33.38a2.89,2.89,0,0,0-2.27,1.09l-4,5-4-5a2.89,2.89,0,0,0-2.27-1.09H17.78A10.83,10.83,0,0,0,9.71,31.17Zm3.73,3.33a5.74,5.74,0,0,1,4.34-1.94h2l4.46,5.57a3.67,3.67,0,0,0,5.63,0l4.46-5.57h2A5.81,5.81,0,0,1,42.22,39L39.79,57.21a4.54,4.54,0,0,1-3,3.77,2.5,2.5,0,0,0-1.61,2L31.13,92.85a.73.73,0,0,1-.72.65H23.8a.75.75,0,0,1-.73-.7L19,63a2.5,2.5,0,0,0-1.61-2,4.56,4.56,0,0,1-3-3.82L12,39A5.74,5.74,0,0,1,13.44,34.5Zm46.12-9.68v24.6h8.56a2.5,2.5,0,0,1,0,5H59.56V79h8.56a2.5,2.5,0,0,1,0,5H57.06a2.5,2.5,0,0,1-2.5-2.5V22.32a2.5,2.5,0,0,1,2.5-2.5H68.12a2.5,2.5,0,0,1,0,5ZM92.3,49.46l-8.4,8.4a2.5,2.5,0,0,1-3.54,0L76,53.5A2.5,2.5,0,0,1,79.54,50l2.6,2.6,6.63-6.63a2.5,2.5,0,0,1,3.54,3.54ZM78,25.21l2.62-2.62L78,20a2.5,2.5,0,0,1,3.54-3.54l2.62,2.62,2.62-2.62A2.5,2.5,0,0,1,90.3,20L87.69,22.6l2.62,2.62a2.5,2.5,0,1,1-3.54,3.54l-2.62-2.62-2.62,2.62A2.5,2.5,0,0,1,78,25.21Zm12.3,53.7-2.62,2.62,2.62,2.62a2.5,2.5,0,1,1-3.54,3.54l-2.62-2.62-2.62,2.62A2.5,2.5,0,0,1,78,84.14l2.62-2.62L78,78.91a2.5,2.5,0,0,1,3.54-3.54L84.15,78l2.62-2.62a2.5,2.5,0,0,1,3.54,3.54Z"/><text x="0" y="115" fill="#000000" font-size="5px" font-weight="bold" font-family="'Helvetica Neue', Helvetica, Arial-Unicode, Arial, Sans-serif"></text><text x="0" y="120" fill="#000000" font-size="5px" font-weight="bold" font-family="'Helvetica Neue', Helvetica, Arial-Unicode, Arial, Sans-serif"></text></svg>