<svg xmlns="http://www.w3.org/2000/svg" xmlns:xlink="http://www.w3.org/1999/xlink" version="1.1" x="0px" y="0px" viewBox="0 0 144.083 180" enable-background="new 0 0 144.083 144" xml:space="preserve"><ellipse cx="47.277" cy="60.82" rx="2.766" ry="3.52"/><path d="M80.301,64.341c1.527,0,2.768-1.576,2.768-3.521c0-1.943-1.24-3.52-2.768-3.52c-1.525,0-2.766,1.576-2.766,3.52  C77.536,62.765,78.776,64.341,80.301,64.341z"/><path d="M77.788,86.213h0.002c1.203,0,2.76-0.736,3.192-2.811c0.724-3.465-1.374-11.79-9.5-15.328  c-1.943-0.847-3.513-1.461-4.942-1.836v-0.945c0-1.656-1.343-3-3-3c-1.657,0-3,1.344-3,3v0.945c-1.43,0.375-3,0.989-4.941,1.836  c-8.124,3.538-10.223,11.861-9.501,15.324c0.433,2.078,1.99,2.813,3.192,2.813c0.534,0,1.042-0.131,1.496-0.377  c3.259-0.67,10.314-2.019,12.754-2.019c2.438,0,9.496,1.349,12.755,2.019C76.749,86.082,77.254,86.213,77.788,86.213z M63.54,77.818  c-2.438,0-7.508,0.883-11.021,1.557c0.708-1.947,2.252-4.396,5.476-5.801c2.496-1.088,4.294-1.762,5.549-1.762  c1.248,0,3.045,0.674,5.542,1.762c3.223,1.404,4.768,3.854,5.475,5.801C71.048,78.701,65.977,77.818,63.54,77.818z"/><path d="M127.963,131.076L112.25,109.5V98.736c2.262-1.063,3.832-3.363,3.832-6.023c0-3.664-2.982-6.646-6.648-6.646H97.758  c-3.668,0-6.65,2.982-6.65,6.646c0,2.662,1.571,4.963,3.834,6.025v7.082c-4.887-4.957-11.447-8.764-17.037-11.002  c8.473-4.152,14.887-12.031,17.801-22.021c0.096,0.002,0.188,0.016,0.283,0.016c8.572,0,15.547-6.977,15.547-15.549  c0-6.27-3.729-11.778-9.255-14.215c0.429-1.434,0.649-2.926,0.649-4.429c0-8.573-6.975-15.549-15.547-15.549  c-0.98,0-1.949,0.092-2.9,0.273C81.62,14.403,73.149,8.012,63.54,8.012c-9.608,0-18.078,6.391-20.943,15.332  c-0.951-0.182-1.92-0.273-2.9-0.273c-8.573,0-15.548,6.976-15.548,15.549c0,1.502,0.221,2.994,0.65,4.429  c-5.526,2.437-9.255,7.945-9.255,14.215c0,8.573,6.976,15.55,15.55,15.55c0.262,0,0.521-0.014,0.779-0.026  c2.911,9.992,9.324,17.873,17.794,22.028c-10.409,4.166-24.211,13.797-24.211,26.082v14.244h6v-14.244  c0-6.235,5.858-12.129,12.298-16.295l20.037,31.387l20.034-31.383c3.409,2.207,6.652,4.897,8.952,7.867l-13.548,18.604  c-0.665,0.912-0.762,2.121-0.249,3.127s1.545,1.639,2.674,1.639h43.888c1.129,0,2.162-0.633,2.674-1.639  S128.629,131.988,127.963,131.076z M105.536,57.263c0,4.925-3.746,8.989-8.539,9.495c0.287-2.052,0.441-4.165,0.441-6.336  c0-4.524-0.654-8.869-1.846-12.923l2.096,0.377C102.235,48.693,105.536,52.642,105.536,57.263z M96.93,38.619  c0,1.676-0.45,3.332-1.303,4.792l-0.875,1.499c-2.203-6.082-5.664-11.382-9.989-15.459c0.853-0.245,1.728-0.381,2.62-0.381  C92.647,29.07,96.93,33.354,96.93,38.619z M63.54,14.012c6.882,0,12.958,4.512,15.128,10.86c-4.489-2.619-9.54-4.099-14.878-4.099  c-5.583,0-10.847,1.62-15.486,4.467C50.363,18.7,56.527,14.012,63.54,14.012z M39.697,29.07c1.025,0,2.03,0.168,3.001,0.492  c-4.399,4.182-7.886,9.639-10.058,15.892l-1.189-2.041c-0.852-1.462-1.302-3.119-1.302-4.794  C30.148,33.354,34.432,29.07,39.697,29.07z M21.543,57.263c0-4.621,3.3-8.568,7.847-9.387l2.625-0.472  c-1.208,4.08-1.872,8.458-1.872,13.018c0,2.181,0.157,4.304,0.446,6.364C25.557,66.521,21.543,62.357,21.543,57.263z M36.142,60.422  c0-18.554,12.403-33.648,27.647-33.648c15.247,0,27.648,15.095,27.648,33.648c0,18.035-11.886,31.635-27.648,31.635  C48.028,92.057,36.142,78.457,36.142,60.422z M53.596,108.87l-4.613-7.228c2.841-1.396,5.516-2.379,7.557-2.816L53.596,108.87z   M63.79,124.838l-5.909-9.256l4.986-17.016h1.845l4.986,17.017L63.79,124.838z M73.983,108.87l-2.942-10.041  c2.042,0.438,4.713,1.417,7.555,2.815L73.983,108.87z M97.758,92.066h11.676c0.357,0,0.648,0.289,0.648,0.646  c0,0.358-0.291,0.649-0.648,0.649h-0.184c-1.658,0-3,1.345-3,3v5.025h-5.31v-5.025c0-1.655-1.343-3-3-3h-0.185  c-0.357,0-0.649-0.291-0.649-0.649C97.108,92.355,97.4,92.066,97.758,92.066z M87.549,129.842l12.816-17.6  c0.375-0.514,0.575-1.131,0.575-1.766v-3.088h5.31v3.088c0,0.635,0.201,1.252,0.574,1.766l12.817,17.6H87.549z"/><text x="0" y="159" fill="#000000" font-size="5px" font-weight="bold" font-family="'Helvetica Neue', Helvetica, Arial-Unicode, Arial, Sans-serif"></text><text x="0" y="164" fill="#000000" font-size="5px" font-weight="bold" font-family="'Helvetica Neue', Helvetica, Arial-Unicode, Arial, Sans-serif"></text></svg>