<svg xmlns="http://www.w3.org/2000/svg" xmlns:xlink="http://www.w3.org/1999/xlink" version="1.1" x="0px" y="0px" viewBox="0 0 100 125" enable-background="new 0 0 100 100" xml:space="preserve"><rect x="5" y="5" fill="none" width="90" height="90"/><g><path d="M81.711,81.047V31.341c0-3.444-2.484-6.318-5.756-6.925v-7.865c0-3.278-2.848-6.263-8.021-8.399   C63.123,6.163,56.754,5.067,50,5.067c-6.754,0-13.124,1.096-17.935,3.084c-5.172,2.137-8.02,5.121-8.02,8.399v7.865   c-3.271,0.606-5.756,3.48-5.756,6.925v49.785c0,0.059,0.004,0.116,0.012,0.172c0.132,3.835,3.584,7.335,9.747,9.872   c5.892,2.426,13.689,3.762,21.955,3.762c8.267,0,16.066-1.336,21.957-3.762c6.209-2.557,9.666-6.091,9.748-9.96   c0.002-0.027,0.004-0.056,0.004-0.084v-0.034c0-0.007,0-0.016,0-0.021C81.711,81.063,81.711,81.056,81.711,81.047z M33.062,10.562   C37.564,8.7,43.58,7.675,50,7.675c6.419,0,12.435,1.025,16.937,2.887c4.014,1.658,6.41,3.897,6.41,5.989   c0,2.091-2.396,4.33-6.41,5.989C62.436,24.401,56.42,25.426,50,25.426c-6.42,0-12.436-1.024-16.938-2.886   c-4.014-1.659-6.409-3.898-6.409-5.989C26.653,14.459,29.048,12.22,33.062,10.562z M26.62,25.585v-5.458   c1.249,1.439,3.239,2.76,5.852,3.84c4.686,1.937,10.911,3.004,17.529,3.004c6.617,0,12.843-1.067,17.527-3.004   c2.615-1.08,4.604-2.4,5.854-3.84v5.458c0,0.063,0.006,0.127,0.016,0.188c-0.041,0.074-0.068,0.157-0.082,0.244   c-0.301,1.981-2.625,4.007-6.377,5.557C62.436,33.436,56.42,34.46,50,34.46c-6.42,0-12.436-1.024-16.938-2.887   c-3.752-1.55-6.076-3.575-6.376-5.557c-0.014-0.087-0.042-0.17-0.081-0.244C26.613,25.712,26.62,25.648,26.62,25.585z    M77.109,85.021c-1.41,1.378-3.463,2.631-6.1,3.721c-5.59,2.311-13.049,3.583-21.007,3.583c-7.956,0-15.416-1.272-21.005-3.583   c-2.637-1.09-4.689-2.343-6.1-3.721c-1.323-1.292-1.993-2.621-1.993-3.95c0-1.328,0.67-2.657,1.993-3.95   c1.402-1.369,3.437-2.614,6.05-3.699v7.978c0,0.32,0.199,0.608,0.5,0.723c5.626,2.121,12.926,3.29,20.555,3.29   c7.628,0,14.925-1.168,20.55-3.288c0.301-0.113,0.5-0.401,0.5-0.723v-7.981c2.615,1.085,4.654,2.331,6.057,3.701   c1.322,1.293,1.994,2.622,1.994,3.95C79.104,82.399,78.432,83.729,77.109,85.021z M30.492,80.859V49.025   c5.47,1.883,12.345,2.914,19.51,2.914c7.164,0,14.037-1.03,19.505-2.912v31.834c-5.385,1.94-12.283,3.005-19.505,3.005   C42.78,83.866,35.878,82.801,30.492,80.859z M79.137,77.069c-0.279-0.355-0.592-0.707-0.947-1.053   c-1.553-1.518-3.77-2.878-6.59-4.044c-0.18-0.074-0.363-0.146-0.547-0.219V47.929c0-0.253-0.125-0.49-0.334-0.636   c-0.207-0.144-0.475-0.176-0.711-0.087c-5.455,2.056-12.559,3.188-20.005,3.188c-7.448,0-14.555-1.134-20.01-3.19   c-0.237-0.09-0.503-0.058-0.711,0.087c-0.208,0.144-0.333,0.383-0.333,0.636v23.829c-0.182,0.071-0.362,0.144-0.54,0.217   c-2.82,1.166-5.038,2.526-6.59,4.044c-0.357,0.349-0.673,0.703-0.954,1.062V34.677c0.28,0.359,0.599,0.714,0.954,1.061   c1.552,1.518,3.77,2.878,6.59,4.043c0.433,0.18,0.882,0.355,1.336,0.522c0.087,0.032,0.178,0.047,0.266,0.047   c0.314,0,0.61-0.194,0.725-0.506c0.147-0.4-0.058-0.845-0.458-0.991c-0.435-0.16-0.865-0.328-1.28-0.499   c-2.637-1.09-4.689-2.342-6.1-3.721c-0.592-0.578-1.059-1.172-1.388-1.762c-0.135-0.244-0.385-0.385-0.646-0.396v-1.135   c0-2.453,1.987-4.45,4.435-4.468c0.686,2.329,3.199,4.485,7.173,6.129c4.686,1.937,10.911,3.003,17.529,3.003   c6.617,0,12.843-1.066,17.527-3.003c3.975-1.644,6.488-3.8,7.174-6.129c2.26,0.017,4.125,1.722,4.398,3.913   c-0.025,0.999-0.432,2.004-1.211,2.987c-0.264,0.334-0.207,0.819,0.127,1.085c0.143,0.111,0.311,0.167,0.479,0.167   c0.229,0,0.455-0.101,0.605-0.294c0.014-0.015,0.025-0.03,0.037-0.046V77.069z"/><path d="M71.889,37.975c-0.283,0.127-0.58,0.255-0.879,0.379c-2.834,1.172-6.139,2.077-9.82,2.692   c-0.422,0.069-0.705,0.468-0.637,0.889c0.064,0.377,0.391,0.645,0.762,0.645c0.043,0,0.086-0.003,0.129-0.01   c3.797-0.635,7.215-1.572,10.156-2.789c0.314-0.13,0.625-0.263,0.922-0.396c0.391-0.177,0.563-0.633,0.389-1.022   C72.734,37.973,72.277,37.8,71.889,37.975z"/><path d="M41.447,41.425c-1.297-0.159-2.578-0.357-3.808-0.589c-0.419-0.08-0.822,0.196-0.902,0.616   c-0.079,0.419,0.198,0.822,0.617,0.901c1.262,0.237,2.575,0.442,3.905,0.604c0.032,0.004,0.063,0.006,0.095,0.006   c0.385,0,0.717-0.286,0.765-0.679C42.171,41.862,41.87,41.477,41.447,41.425z"/><path d="M57.369,41.561c-1.533,0.16-3.117,0.271-4.705,0.327c-0.426,0.016-0.76,0.373-0.744,0.8   c0.016,0.418,0.357,0.744,0.771,0.744c0.01,0,0.02,0,0.029,0c1.621-0.059,3.24-0.172,4.807-0.335   c0.426-0.044,0.732-0.424,0.688-0.849C58.172,41.824,57.791,41.516,57.369,41.561z"/></g><text x="0" y="115" fill="#000000" font-size="5px" font-weight="bold" font-family="'Helvetica Neue', Helvetica, Arial-Unicode, Arial, Sans-serif"></text><text x="0" y="120" fill="#000000" font-size="5px" font-weight="bold" font-family="'Helvetica Neue', Helvetica, Arial-Unicode, Arial, Sans-serif"></text></svg>