<svg xmlns="http://www.w3.org/2000/svg" xmlns:xlink="http://www.w3.org/1999/xlink" version="1.1" x="0px" y="0px" viewBox="0 0 100 125" style="enable-background:new 0 0 100 100;" xml:space="preserve"><path d="M82.9,22.3c0,0,0-0.1,0-0.1l-1-15.3c0-1.3-1.1-2.4-2.4-2.4H19.3c-1.3,0-2.4,1.1-2.4,2.3l-1,15.4c0,0,0,0.1,0,0.1l2,27.3  c0.1,0.7,0.1,1.4,0,2.1l-1.9,36c0,0.6,0.2,1.3,0.6,1.7l1.5,1.9c1.5,1.9,3.7,3,6,3.1c0.7,0.8,2.6,1.5,7.8,2.2  c4.7,0.6,11,0.9,17.7,0.9s13-0.3,17.7-0.9c5.3-0.7,7.2-1.4,7.8-2.2c2.2-0.2,4.3-1.3,5.7-3.1l1.5-1.9c0.4-0.5,0.6-1.1,0.6-1.7  l-1.9-36c0-0.7,0-1.4,0-2.1L82.9,22.3z M79,51.8l1.9,36c0,0.1,0,0.3-0.1,0.4L79.3,90c-1,1.2-2.4,2-3.9,2.3l-1-19.8c0-0.6-0.5-1-1-1  c-0.6,0-1,0.5-1,1l1,20.5c-1.4,1-10.1,2.3-23.9,2.3c-13.9,0-22.7-1.3-23.9-2.3c0-0.1-0.1-0.1-0.1-0.2l1.6-25.6c0-0.6-0.4-1-0.9-1.1  c-0.6,0-1,0.4-1.1,0.9l-1.6,25c-1.6-0.2-3-1-4-2.3l-1.5-1.9C18,88.1,18,87.9,18,87.8l1.9-36c0-0.8,0-1.6,0-2.3l-2-27.2l1-15.4  c0-0.2,0.2-0.4,0.4-0.4h60.3c0.2,0,0.4,0.2,0.4,0.4l1,15.3l-2,27.2C78.9,50.2,78.9,51,79,51.8z"/><path d="M44.8,21.2c-0.6,0-1,0.4-1,1s0.4,1,1,1h2.1c0.6,0,1-0.4,1-1s-0.4-1-1-1H44.8z"/><path d="M52,21.2c-0.6,0-1,0.4-1,1s0.4,1,1,1h2.1c0.6,0,1-0.4,1-1s-0.4-1-1-1H52z"/><path d="M25.2,21.2h-2.1c-0.6,0-1,0.4-1,1s0.4,1,1,1h2.1c0.6,0,1-0.4,1-1S25.7,21.2,25.2,21.2z"/><path d="M59.2,23.2h2.1c0.6,0,1-0.4,1-1s-0.4-1-1-1h-2.1c-0.6,0-1,0.4-1,1S58.7,23.2,59.2,23.2z"/><path d="M75.8,21.2h-2.1c-0.6,0-1,0.4-1,1s0.4,1,1,1h2.1c0.6,0,1-0.4,1-1S76.3,21.2,75.8,21.2z"/><path d="M68.5,21.2h-2.1c-0.6,0-1,0.4-1,1s0.4,1,1,1h2.1c0.6,0,1-0.4,1-1S69.1,21.2,68.5,21.2z"/><path d="M32.4,21.2h-2.1c-0.6,0-1,0.4-1,1s0.4,1,1,1h2.1c0.6,0,1-0.4,1-1S33,21.2,32.4,21.2z"/><path d="M37.6,23.2h2.1c0.6,0,1-0.4,1-1s-0.4-1-1-1h-2.1c-0.6,0-1,0.4-1,1S37,23.2,37.6,23.2z"/><path d="M44.8,17.6h10.5c1.7,0,3-1.3,3-3s-1.3-3-3-3h-2.1c-0.5-1.3-1.7-2.2-3.2-2.2s-2.7,0.9-3.2,2.2h-2.1c-1.7,0-3,1.3-3,3  S43.2,17.6,44.8,17.6z M44.8,13.6h2.9c0.5,0,1-0.4,1-0.9c0.1-0.7,0.7-1.3,1.4-1.3c0.7,0,1.3,0.6,1.4,1.3c0,0.5,0.5,0.9,1,0.9h2.9  c0.5,0,1,0.4,1,1s-0.4,1-1,1H44.8c-0.5,0-1-0.4-1-1S44.3,13.6,44.8,13.6z"/><path d="M62.8,46.2c-3-2.8-4-4.4-4.9-6c-0.2-0.4-0.5-0.8-0.7-1.2c-0.9-1.3-1.6-1.9-2.4-2.6c-0.5-0.4-1-0.8-1.5-1.4  c-2.1-2.2-5.3-1.5-6.5-1.2c-1.1,0.2-2,0.9-2.5,1.8c-0.4,0.7-0.5,1.4-0.3,2c0.1,0.3-0.4,1-0.7,1.5L43,39.4c-0.3,0.4-0.4,0.9-0.2,1.4  c0.3,1.1,1.5,2,2.3,2.4c1.3,0.7,4.2,1.6,6-0.5c0.7-0.8,1.6-0.2,1.9,0c0.4,0.4,1.1,2.5,1.5,4.3c-0.7,1.7-0.8,3.3-0.8,4.4  c-3.1-1.4-6.2-0.5-7.9,0.6c-1.9-1.5-3.7-2.1-5.6-1.9c-2.8,0.3-4.5,2.5-4.6,2.6c-0.3,0.5-0.2,1.1,0.2,1.4c0.5,0.3,1.1,0.2,1.4-0.2  c0,0,1.2-1.6,3.1-1.8c1.5-0.1,3,0.5,4.6,1.9c0.4,0.3,0.9,0.4,1.3,0c0.2-0.1,4.2-3.1,8.3,0.3c0.4,0.3,0.9,0.3,1.3,0  c0.4-0.3,0.5-0.9,0.3-1.3c0-0.1-1.2-2.3,0.3-5.7c0.1-0.2,0.1-0.4,0.1-0.6c-0.2-1-1-4.6-2.1-5.7c-0.1-0.1-1.2-1.1-2.7-1  c-0.8,0-1.6,0.4-2.2,1.1c-1.2,1.3-3.4,0.1-3.5,0.1c-0.7-0.4-1.1-0.8-1.2-1l0.1-0.1c0.6-0.9,1.3-2,1-3.2c0-0.2,0.4-1,1.3-1.2  c1.5-0.4,3.4-0.6,4.6,0.6c0.7,0.7,1.2,1.2,1.7,1.6c0.7,0.6,1.3,1.1,2,2.1c0.2,0.4,0.5,0.7,0.7,1.1c1,1.6,2.1,3.4,5.2,6.4  c2.2,2.1,3.5,5.6,3.7,9.9l0,0.1c0,0.2,0.1,0.4,0.2,0.6c0.2,0.2,0.4,0.6,0.4,0.7c-0.5,0.6-0.6,0.5-0.8,0.5c-0.4-0.1-0.8,0-1,0.3  c0,0-3.4,3.7-9,3.8c-2.6,0-4.8-0.5-6.7-0.9c-1-0.2-1.9-0.5-2.8-0.6c0.3-0.2,0.6-0.3,0.6-0.3c0.5-0.2,0.8-0.8,0.7-1.3  c-0.2-0.5-0.8-0.8-1.3-0.7c-0.1,0-2.6,0.9-4,3.1c-0.1,0.1-0.1,0.2-0.2,0.3c-0.4,0.7-0.6,1.4-0.8,2.3c-0.2,1.9-2.1,2.8-5.7,2.8  c-0.6,0-1,0.5-1,1c0,0.6,0.5,1,1.1,1c0,0,0,0,0,0c5.8,0,7.4-2.5,7.7-4.6c0.1-0.6,0.2-1.1,0.5-1.5c1.1-0.6,2.7-0.2,4.8,0.3  c1.9,0.4,4.1,1,6.8,1c0.1,0,0.2,0,0.4,0c5.4-0.1,9-3,10.1-4.1c1,0,1.7-0.6,2.2-1.2c0.8-1,0.4-2.3-0.1-3  C66.9,52.6,65.3,48.7,62.8,46.2z"/><text x="0" y="115" fill="#000000" font-size="5px" font-weight="bold" font-family="'Helvetica Neue', Helvetica, Arial-Unicode, Arial, Sans-serif"></text><text x="0" y="120" fill="#000000" font-size="5px" font-weight="bold" font-family="'Helvetica Neue', Helvetica, Arial-Unicode, Arial, Sans-serif"></text></svg>