<svg xmlns="http://www.w3.org/2000/svg" xmlns:xlink="http://www.w3.org/1999/xlink" version="1.1" x="0px" y="0px" viewBox="0 0 100 125" enable-background="new 0 0 100 100" xml:space="preserve"><g><path fill="none" d="M29.863,34.93l-7.862-0.065c-0.004,1.272,0.041,2.57,0.077,3.612c0.012,0.352,0.023,0.668,0.03,0.944h7.447v1   H22.12v4.526h7.436v1H22.12v4.303h7.436v1H22.12v4.344h7.436v1H22.12v4.156h7.436v1H22.12v0.871c0,3.334,4.297,5.325,11.493,5.325   h15.49c7.196,0,11.493-1.991,11.493-5.325V40.07c0-0.208,0.006-0.815,0.014-1.622c0.01-1.021,0.023-2.364,0.031-3.616L44.76,34.93   H29.863z"/><path fill="#000000" d="M88.745,30.821H64.646v-0.014l-3.91,0.024c-3.438-4.538-12.077-7.491-18.978-7.491   c-1.282,0-2.471,0.104-3.532,0.312c-0.696,0.135-1.382,0.265-2.056,0.392c-5.995,1.13-11.172,2.106-14.367,5.603   c-0.406,0.445-0.7,0.844-0.926,1.208l-2.706-0.022l-0.111,1.898c-0.116,1.963-0.037,4.23,0.02,5.885   c0.021,0.617,0.04,1.125,0.04,1.455v22.551c0,2.804,1.51,9.325,15.493,9.325h15.49c13.983,0,15.493-6.521,15.493-9.325V40.07   c0-0.203,0.006-0.796,0.014-1.583c0.013-1.315,0.03-3.16,0.036-4.666h24.099V30.821z M60.61,38.448   c-0.008,0.807-0.014,1.414-0.014,1.622v22.551c0,3.334-4.297,5.325-11.493,5.325h-15.49c-7.196,0-11.493-1.991-11.493-5.325V61.75   h7.436v-1H22.12v-4.156h7.436v-1H22.12V51.25h7.436v-1H22.12v-4.303h7.436v-1H22.12v-4.526h7.436v-1h-7.447   c-0.007-0.276-0.018-0.593-0.03-0.944c-0.036-1.042-0.081-2.34-0.077-3.612l7.862,0.065H44.76l15.882-0.098   C60.634,36.084,60.62,37.428,60.61,38.448z"/></g><text x="0" y="115" fill="#000000" font-size="5px" font-weight="bold" font-family="'Helvetica Neue', Helvetica, Arial-Unicode, Arial, Sans-serif"></text><text x="0" y="120" fill="#000000" font-size="5px" font-weight="bold" font-family="'Helvetica Neue', Helvetica, Arial-Unicode, Arial, Sans-serif"></text></svg>