<svg xmlns="http://www.w3.org/2000/svg" xmlns:xlink="http://www.w3.org/1999/xlink" version="1.1" x="0px" y="0px" viewBox="0 0 100 125" style="enable-background:new 0 0 100 100;" xml:space="preserve"><g><path d="M72.7,27.4c1.2-0.7,2-1.9,2-3.4v-5.8c0-2.2-1.8-4-4-4H29.3c-2.2,0-4,1.8-4,4v5.8c0,1.4,0.8,2.7,2,3.4   c-5.6,2.5-9.5,8.1-9.5,14.7v27.5c0,8.9,7.2,16.1,16.1,16.1h32.3c8.9,0,16.1-7.2,16.1-16.1V42.1C82.2,35.6,78.3,30,72.7,27.4z    M27.3,18.3c0-1.1,0.9-2,2-2h41.4c1.1,0,2,0.9,2,2v5.8c0,1.1-0.9,2-2,2h-4.6H33.9h-4.6c-1.1,0-2-0.9-2-2V18.3z M33.9,28h32.3   c7.3,0,13.3,5.6,14,12.7H19.9C20.6,33.6,26.6,28,33.9,28z M66.1,83.7H33.9c-7.3,0-13.3-5.6-14-12.7h60.3   C79.4,78.1,73.4,83.7,66.1,83.7z M80.2,69H19.8V42.7h60.4V69z"/><path d="M42,61.7c0.1,0,0.1,0,0.2,0c-0.3,0.5-0.5,1-0.5,1.6c0,1.6,1.3,2.8,2.8,2.8c1.3,0,2.4-0.9,2.7-2.1c0.5,0.6,1.3,0.9,2.1,0.9   c1.6,0,2.8-1.3,2.8-2.8c0-1-0.6-1.9-1.4-2.4c1-0.4,1.7-1.4,1.7-2.6c0-0.2,0-0.3-0.1-0.5l1.3-0.8l1.5,0.9c0,0.2,0,0.3,0,0.5   c0,1.6,1.3,2.8,2.8,2.8c1.6,0,2.8-1.3,2.8-2.8s-1.3-2.8-2.8-2.8c-0.7,0-1.3,0.2-1.8,0.6L54.7,54v-2c1.1-0.4,1.8-1.4,1.8-2.6   c0-1.6-1.3-2.8-2.8-2.8s-2.8,1.3-2.8,2.8c0,1.2,0.8,2.2,1.8,2.6v2l-1.3,0.8c-0.5-0.4-1.1-0.6-1.7-0.6c-0.6,0-1.2,0.2-1.7,0.6   c-0.2-1.4-1.4-2.4-2.8-2.4c-1.6,0-2.8,1.3-2.8,2.8c0,0.3,0.1,0.6,0.2,0.9C42.3,56,42.2,56,42,56c-1.6,0-2.8,1.3-2.8,2.8   C39.2,60.4,40.4,61.7,42,61.7z M58.8,57c0,0.5-0.4,0.8-0.8,0.8s-0.8-0.4-0.8-0.8s0.4-0.8,0.8-0.8S58.8,56.6,58.8,57z M53.7,48.5   c0.5,0,0.8,0.4,0.8,0.8s-0.4,0.8-0.8,0.8s-0.8-0.4-0.8-0.8S53.2,48.5,53.7,48.5z M46.9,57.4c0.1,0.8,0.6,1.6,1.3,2   c-0.8,0.3-1.4,1-1.6,1.9c-0.5-0.6-1.3-0.9-2.1-0.9c-0.1,0-0.1,0-0.2,0c0.3-0.5,0.5-1,0.5-1.6c0-0.3-0.1-0.6-0.2-0.9   c0.2,0,0.3,0.1,0.5,0.1C45.8,58,46.4,57.8,46.9,57.4z M44.5,64.1c-0.5,0-0.8-0.4-0.8-0.8s0.4-0.8,0.8-0.8s0.8,0.4,0.8,0.8   S45,64.1,44.5,64.1z M49.3,62.8c-0.5,0-0.8-0.4-0.8-0.8c0-0.5,0.4-0.8,0.8-0.8s0.8,0.4,0.8,0.8C50.2,62.5,49.8,62.8,49.3,62.8z    M50.5,57c0,0.5-0.4,0.8-0.8,0.8s-0.8-0.4-0.8-0.8s0.4-0.8,0.8-0.8S50.5,56.6,50.5,57z M45.2,54.4c0.5,0,0.8,0.4,0.8,0.8   S45.6,56,45.2,56s-0.8-0.4-0.8-0.8S44.7,54.4,45.2,54.4z M42,58c0.5,0,0.8,0.4,0.8,0.8s-0.4,0.8-0.8,0.8s-0.8-0.4-0.8-0.8   S41.5,58,42,58z"/></g><text x="0" y="115" fill="#000000" font-size="5px" font-weight="bold" font-family="'Helvetica Neue', Helvetica, Arial-Unicode, Arial, Sans-serif"></text><text x="0" y="120" fill="#000000" font-size="5px" font-weight="bold" font-family="'Helvetica Neue', Helvetica, Arial-Unicode, Arial, Sans-serif"></text></svg>