<svg xmlns="http://www.w3.org/2000/svg" xmlns:xlink="http://www.w3.org/1999/xlink" version="1.1" x="0px" y="0px" viewBox="0 0 100 125" style="enable-background:new 0 0 100 100;" xml:space="preserve"><g><path d="M82.8,22.3c0,0,0-0.1,0-0.1l-1-15.3c0-1.3-1.1-2.4-2.4-2.4H19.1c-1.3,0-2.4,1.1-2.4,2.3l-1,15.4c0,0,0,0.1,0,0.1l2,27.3   c0,0.7,0.1,1.4,0,2.1l-1.9,36c0,0.6,0.2,1.3,0.6,1.7l1.5,1.9c1.5,1.9,3.7,3,6,3.1c0.7,0.8,2.6,1.5,7.8,2.2c4.7,0.6,11,0.9,17.7,0.9   c6.7,0,13-0.3,17.7-0.9c5.3-0.7,7.2-1.4,7.8-2.2c2.2-0.2,4.3-1.3,5.7-3.1l1.5-1.9c0.4-0.5,0.6-1.1,0.6-1.7l-1.9-36   c0-0.7,0-1.4,0-2.1L82.8,22.3z M78.8,51.8l1.9,36c0,0.1,0,0.3-0.1,0.4L79.1,90c-1,1.2-2.4,2-3.9,2.3l-0.9-19.8c0-0.6-0.5-1-1-1   c-0.6,0-1,0.5-1,1l1,20.5c-1.4,1-10.1,2.3-23.9,2.3c-13.9,0-22.7-1.3-23.9-2.3c0-0.1-0.1-0.1-0.1-0.2L27,67.4c0-0.6-0.4-1-0.9-1.1   c-0.5,0-1,0.4-1.1,0.9l-1.6,25c-1.6-0.2-3-1-4-2.3l-1.5-1.9c-0.1-0.1-0.1-0.2-0.1-0.4l1.9-36c0-0.8,0-1.6,0-2.3l-2-27.2l1-15.4   c0-0.2,0.2-0.4,0.4-0.4h60.3c0.2,0,0.4,0.2,0.4,0.4l1,15.3l-2,27.2C78.8,50.2,78.7,51,78.8,51.8z"/><path d="M46.7,21.2h-2.1c-0.6,0-1,0.4-1,1s0.4,1,1,1h2.1c0.6,0,1-0.4,1-1S47.2,21.2,46.7,21.2z"/><path d="M39.4,21.2h-2.1c-0.6,0-1,0.4-1,1s0.4,1,1,1h2.1c0.6,0,1-0.4,1-1S40,21.2,39.4,21.2z"/><path d="M32.2,21.2h-2.1c-0.6,0-1,0.4-1,1s0.4,1,1,1h2.1c0.6,0,1-0.4,1-1S32.8,21.2,32.2,21.2z"/><path d="M25,21.2h-2.1c-0.6,0-1,0.4-1,1s0.4,1,1,1H25c0.6,0,1-0.4,1-1S25.5,21.2,25,21.2z"/><path d="M61.1,21.2h-2.1c-0.6,0-1,0.4-1,1s0.4,1,1,1h2.1c0.6,0,1-0.4,1-1S61.7,21.2,61.1,21.2z"/><path d="M68.3,21.2h-2.1c-0.6,0-1,0.4-1,1s0.4,1,1,1h2.1c0.6,0,1-0.4,1-1S68.9,21.2,68.3,21.2z"/><path d="M53.9,21.2h-2.1c-0.6,0-1,0.4-1,1s0.4,1,1,1h2.1c0.6,0,1-0.4,1-1S54.4,21.2,53.9,21.2z"/><path d="M75.6,21.2h-2.1c-0.6,0-1,0.4-1,1s0.4,1,1,1h2.1c0.6,0,1-0.4,1-1S76.1,21.2,75.6,21.2z"/><path d="M55.2,11.6h-2.1c-0.5-1.3-1.7-2.2-3.2-2.2c-1.5,0-2.7,0.9-3.2,2.2h-2.1c-1.7,0-3,1.3-3,3s1.3,3,3,3h10.5c1.7,0,3-1.3,3-3   S56.8,11.6,55.2,11.6z M55.2,15.6H44.6c-0.5,0-1-0.4-1-1s0.4-1,1-1h2.9c0.5,0,1-0.4,1-0.9c0.1-0.7,0.7-1.3,1.4-1.3s1.3,0.6,1.4,1.3   c0,0.5,0.5,0.9,1,0.9h2.9c0.5,0,1,0.4,1,1S55.7,15.6,55.2,15.6z"/></g><text x="0" y="115" fill="#000000" font-size="5px" font-weight="bold" font-family="'Helvetica Neue', Helvetica, Arial-Unicode, Arial, Sans-serif"></text><text x="0" y="120" fill="#000000" font-size="5px" font-weight="bold" font-family="'Helvetica Neue', Helvetica, Arial-Unicode, Arial, Sans-serif"></text></svg>