<svg xmlns="http://www.w3.org/2000/svg" xmlns:xlink="http://www.w3.org/1999/xlink" version="1.1" x="0px" y="0px" viewBox="0 0 179.911 296.48" style="enable-background:new 0 0 179.911 237.184;" xml:space="preserve"><g><path d="M91.706,62.591c9.909-3.107,21.86-8.636,32.375-18.479h12.954l3.045-30.267l-2.985-0.3l-0.763,7.584h-16.823l-0.763-7.584   l-2.983,0.3l1.446,14.401c-9.066,10.373-20.578,16.033-30.291,19.077c-5.212,1.638-9.848,2.5-13.119,2.943   c-1.633,0.223-2.928,0.341-3.779,0.404c-0.211,0.015-0.395,0.026-0.551,0.035c-0.048,0-0.095-0.007-0.144-0.007H30.691   c-0.152,0-0.301,0.014-0.45,0.022c-1.813,0.034-4.77,0.437-8.129,2.13c-5.379,2.667-11.177,8.503-15.234,18.84   C2.77,82.072,0.013,97.077,0,119.736c0,5.859,0.188,12.226,0.594,19.16c0.25,4.252,3.775,7.533,7.978,7.533   c0.158,0,0.316-0.005,0.477-0.015c4.409-0.258,7.775-4.044,7.519-8.453c-0.393-6.651-0.569-12.711-0.569-18.226   c-0.034-24.211,3.495-37.814,6.963-44.915V224.82c0,6.83,5.537,12.363,12.363,12.363c6.828,0,12.365-5.533,12.365-12.363v-90.271   h4.635v90.271c0,6.83,5.537,12.363,12.363,12.363c6.828,0,12.365-5.533,12.365-12.363V65.963   C80.936,65.386,85.998,64.376,91.706,62.591z M136.153,22.904l-1.831,18.206h-12.805l-1.83-18.206H136.153z"/><circle cx="50.009" cy="22.5" r="22.5"/><path d="M106.843,96.796l-0.762-7.583l-2.985,0.301l3.043,30.267h18.229l3.044-30.267l-2.984-0.301l-0.763,7.583H106.843z    M108.85,116.778l-1.828-18.206h16.465l-1.832,18.206H108.85z"/><rect x="89.578" y="124.346" width="90.333" height="4.842"/><path d="M133.995,87.684v28.667c0,2.209,1.791,4,4,4h20.666c2.209,0,4-1.791,4-4V87.684c0-2.209-1.791-4-4-4h-20.666   C135.786,83.684,133.995,85.475,133.995,87.684z M151.577,113.684h-15V89.518h15V113.684z"/><path d="M156.827,76.518h-17c-1.381,0-2.5,1.119-2.5,2.5c0,1.381,1.119,2.5,2.5,2.5h17c1.381,0,2.5-1.119,2.5-2.5   C159.327,77.637,158.208,76.518,156.827,76.518z"/></g><text x="0" y="252.184" fill="#000000" font-size="5px" font-weight="bold" font-family="'Helvetica Neue', Helvetica, Arial-Unicode, Arial, Sans-serif"></text><text x="0" y="257.18399999999997" fill="#000000" font-size="5px" font-weight="bold" font-family="'Helvetica Neue', Helvetica, Arial-Unicode, Arial, Sans-serif"></text></svg>