<svg xmlns="http://www.w3.org/2000/svg" xmlns:xlink="http://www.w3.org/1999/xlink" version="1.1" x="0px" y="0px" viewBox="0 0 100 125" style="enable-background:new 0 0 100 100;" xml:space="preserve"><g><path d="M82.8,21.3c0,0,0-0.1,0-0.1l-1-15.3c0-1.3-1.1-2.4-2.4-2.4H19.1c-1.3,0-2.4,1.1-2.4,2.3l-1,15.4c0,0,0,0.1,0,0.1l2,27.3   c0,0.7,0.1,1.4,0,2.1l-1.9,36c0,0.6,0.2,1.3,0.6,1.7l1.5,1.9c1.5,1.9,3.7,3,6,3.1c0.7,0.8,2.6,1.5,7.8,2.2c4.7,0.6,11,0.9,17.7,0.9   c6.7,0,13-0.3,17.7-0.9c5.3-0.7,7.2-1.4,7.8-2.2c2.2-0.2,4.3-1.3,5.7-3.1l1.5-1.9c0.4-0.5,0.6-1.1,0.6-1.7l-1.9-36   c0-0.7,0-1.4,0-2.1L82.8,21.3z M78.8,50.8l1.9,36c0,0.1,0,0.3-0.1,0.4L79.1,89c-1,1.2-2.4,2-3.9,2.3l-0.9-19.8c0-0.6-0.5-1-1-1   c-0.6,0-1,0.5-1,1l1,20.5c-1.4,1-10.1,2.3-23.9,2.3c-13.9,0-22.7-1.3-23.9-2.3c0-0.1-0.1-0.1-0.1-0.2L27,66.4c0-0.6-0.4-1-0.9-1.1   c-0.5,0-1,0.4-1.1,0.9l-1.6,25c-1.6-0.2-3-1-4-2.3l-1.5-1.9c-0.1-0.1-0.1-0.2-0.1-0.4l1.9-36c0-0.8,0-1.6,0-2.3l-2-27.2l1-15.4   c0-0.2,0.2-0.4,0.4-0.4h60.3c0.2,0,0.4,0.2,0.4,0.4l1,15.3l-2,27.2C78.8,49.2,78.7,50,78.8,50.8z"/><path d="M75.6,20.2h-2.1c-0.6,0-1,0.4-1,1s0.4,1,1,1h2.1c0.6,0,1-0.4,1-1S76.1,20.2,75.6,20.2z"/><path d="M51.8,20.2c-0.6,0-1,0.4-1,1s0.4,1,1,1h2.1c0.6,0,1-0.4,1-1s-0.4-1-1-1H51.8z"/><path d="M25,20.2h-2.1c-0.6,0-1,0.4-1,1s0.4,1,1,1H25c0.6,0,1-0.4,1-1S25.5,20.2,25,20.2z"/><path d="M44.6,20.2c-0.6,0-1,0.4-1,1s0.4,1,1,1h2.1c0.6,0,1-0.4,1-1s-0.4-1-1-1H44.6z"/><path d="M40.4,21.2c0-0.6-0.4-1-1-1h-2.1c-0.6,0-1,0.4-1,1s0.4,1,1,1h2.1C40,22.2,40.4,21.8,40.4,21.2z"/><path d="M68.3,20.2h-2.1c-0.6,0-1,0.4-1,1s0.4,1,1,1h2.1c0.6,0,1-0.4,1-1S68.9,20.2,68.3,20.2z"/><path d="M61.1,20.2h-2.1c-0.6,0-1,0.4-1,1s0.4,1,1,1h2.1c0.6,0,1-0.4,1-1S61.7,20.2,61.1,20.2z"/><path d="M32.2,20.2h-2.1c-0.6,0-1,0.4-1,1s0.4,1,1,1h2.1c0.6,0,1-0.4,1-1S32.8,20.2,32.2,20.2z"/><path d="M44.6,16.6h10.5c1.7,0,3-1.3,3-3s-1.3-3-3-3h-2.1c-0.5-1.3-1.7-2.2-3.2-2.2c-1.5,0-2.7,0.9-3.2,2.2h-2.1c-1.7,0-3,1.3-3,3   S43,16.6,44.6,16.6z M44.6,12.6h2.9c0.5,0,1-0.4,1-0.9c0.1-0.7,0.7-1.3,1.4-1.3s1.3,0.6,1.4,1.3c0,0.5,0.5,0.9,1,0.9h2.9   c0.5,0,1,0.4,1,1s-0.4,1-1,1H44.6c-0.5,0-1-0.4-1-1S44.1,12.6,44.6,12.6z"/><path d="M59.1,46.6H52L55.1,36c0.1-0.3,0-0.6-0.2-0.9c-0.2-0.3-0.5-0.4-0.8-0.4H44c-0.5,0-0.9,0.3-1,0.8L39.2,55   c-0.1,0.3,0,0.6,0.2,0.8s0.5,0.4,0.8,0.4H46l-1.4,16.6c0,0.5,0.3,0.9,0.7,1c0.1,0,0.2,0,0.3,0c0.4,0,0.7-0.2,0.9-0.5L60,48.1   c0.2-0.3,0.2-0.7,0-1S59.4,46.6,59.1,46.6z M47,68.1l1.1-12.8c0-0.3-0.1-0.6-0.3-0.8s-0.5-0.3-0.7-0.3h-5.6l3.4-17.4h8l-3.1,10.6   c-0.1,0.3,0,0.6,0.2,0.9c0.2,0.3,0.5,0.4,0.8,0.4h6.7L47,68.1z"/></g><text x="0" y="115" fill="#000000" font-size="5px" font-weight="bold" font-family="'Helvetica Neue', Helvetica, Arial-Unicode, Arial, Sans-serif"></text><text x="0" y="120" fill="#000000" font-size="5px" font-weight="bold" font-family="'Helvetica Neue', Helvetica, Arial-Unicode, Arial, Sans-serif"></text></svg>