<svg xmlns="http://www.w3.org/2000/svg" xmlns:xlink="http://www.w3.org/1999/xlink" version="1.1" x="0px" y="0px" viewBox="0 0 212.832 232.84375" style="enable-background:new 0 0 212.832 186.275;" xml:space="preserve"><g><path d="M113.662,67.762c0.633,1.201,1.396,2.381,2.338,3.51l1.209,1.467h3.924v6.104h-8.543v5.299h25.744v-5.299h-11.395v-6.104   h9.928v-4.666l4.248-4.85l-2.168-1.9l-2.924,3.338h-2.658l9.078-10.361l-2.164-1.895L129.541,64.66h-8.363   c-0.311-0.501-0.57-1.001-0.789-1.504c-0.375,0.342-0.772,0.667-1.209,0.956L113.662,67.762z"/><path d="M51.791,56.605c-0.064-2.668,0.916-5.205,2.758-7.139c1.906-2.001,4.479-3.102,7.24-3.102c2.582,0,5.029,0.981,6.897,2.763   l8.154,7.774c0.764-6.098-0.922-11.993-5.529-14.898c-7.441-4.691-20.647-4.16-30.008,8.172   c-12.777,17.032-18.275,29.047-22.77,50.956c-2.064,16.272,7.899,21.293,16.639,24.05c1.113,0.352,2.152,0.662,3.127,0.911   c1.394,0.538,2.904,0.845,4.488,0.845v-0.003h40.772l-11.949,43.527c-1.826,6.658,2.09,13.537,8.748,15.364   c1.105,0.304,2.219,0.449,3.314,0.449c5.488,0,10.523-3.645,12.049-9.193l16.285-59.338c1.027-3.743,0.24-7.8-2.113-10.887   c-2.354-3.088-6.059-4.922-9.939-4.922H55.355c3.426-9.178,8.254-18.078,12.643-25.832l-13.109-12.5   C52.955,61.761,51.855,59.277,51.791,56.605z"/><path d="M73.932,14.099c-4.641,11.525,0.941,24.629,12.467,29.268c8.965,3.61,18.885,1.031,25.035-5.718l5.002,4.411   c-0.512,0.83-1.088,1.834-1.668,2.99c-0.123,0.245-0.244,0.51-0.367,0.769c2.816,0.208,5.393,1.583,7.129,3.806   c0.148-0.327,0.303-0.647,0.457-0.952c0.209-0.416,0.416-0.805,0.621-1.172l8.316,7.336l4.23-4.797l-20.115-17.738   c0.221-0.458,0.434-0.921,0.627-1.4c4.641-11.525-0.941-24.629-12.467-29.268C91.676-3.007,78.57,2.575,73.932,14.099z"/><path d="M109.254,49.1L83.57,66.081L67.307,50.576c-3.197-3.05-8.26-2.928-11.309,0.269c-3.049,3.199-2.928,8.262,0.271,11.309   h-0.002l20.877,19.906c1.527,1.456,3.521,2.204,5.527,2.204c1.527,0,3.064-0.435,4.406-1.32l31-20.5   c3.684-2.438,4.697-7.4,2.26-11.084C117.9,47.674,112.938,46.662,109.254,49.1z"/><polygon points="54.334,132.272 8.332,132.272 0,184.939 62.666,184.939  "/><rect x="73.166" y="88.272" width="139.666" height="8.5"/><rect x="195.906" y="47.852" width="10.549" height="4.5"/><rect x="177.156" y="47.852" width="4.75" height="4.5"/><rect x="152.607" y="47.852" width="10.549" height="4.5"/><rect x="177.156" y="69.102" width="4.75" height="4.5"/><rect x="152.607" y="69.102" width="10.549" height="4.5"/><rect x="195.906" y="69.102" width="10.549" height="4.5"/><path d="M177.156,40.135v-2.5h-14v2.5h2v39.5c0,2.762,2.24,5,5,5c2.762,0,5-2.238,5-5v-39.5H177.156z M173.156,79.636   c0,1.653-1.346,3-3,3s-3-1.347-3-3V43.772h6V79.636z"/><path d="M183.906,79.635c0,2.762,2.24,5,5,5c2.762,0,5-2.238,5-5v-39.5h2v-2.5h-14v2.5h2V79.635z M191.906,43.772v35.864   c0,1.653-1.346,3-3,3s-3-1.347-3-3V43.772H191.906z"/></g><text x="0" y="201.275" fill="#000000" font-size="5px" font-weight="bold" font-family="'Helvetica Neue', Helvetica, Arial-Unicode, Arial, Sans-serif"></text><text x="0" y="206.275" fill="#000000" font-size="5px" font-weight="bold" font-family="'Helvetica Neue', Helvetica, Arial-Unicode, Arial, Sans-serif"></text></svg>