<svg xmlns="http://www.w3.org/2000/svg" data-name="Layer 1" viewBox="0 0 100 125" x="0px" y="0px"><title>Artboard 32</title><path d="M95.18,40.71A2.39,2.39,0,0,1,94.57,38l.37-.87a2.39,2.39,0,0,0-1.55-3.23l-.9-.26a2.39,2.39,0,0,1-1.73-2.19l0-.94a2.39,2.39,0,0,0-2.8-2.24l-.93.16a2.39,2.39,0,0,1-2.51-1.22L84,26.38a2.39,2.39,0,0,0-3.49-.81l-.77.55a2.39,2.39,0,0,1-2.79,0l-.76-.55a2.39,2.39,0,0,0-3.5.79l-.45.82a2.39,2.39,0,0,1-2.52,1.2l-.93-.17a2.42,2.42,0,0,0-.43,0A2.39,2.39,0,0,0,66,30.44l0,.94a2.39,2.39,0,0,1-1.75,2.18l-.91.25A2.39,2.39,0,0,0,61.75,37l.36.87a2.39,2.39,0,0,1-.63,2.72l-.71.62a2.39,2.39,0,0,0,0,3.58l.7.62a2.39,2.39,0,0,1,.61,2.72l-.37.87a2.39,2.39,0,0,0,1.55,3.23l.9.26a2.39,2.39,0,0,1,1.73,2.19l0,.94a2.39,2.39,0,0,0,2.38,2.28,2.42,2.42,0,0,0,.41,0l.93-.16A2.39,2.39,0,0,1,72.18,59l.45.83a2.39,2.39,0,0,0,3.49.81l.77-.55a2.39,2.39,0,0,1,2.79,0l.76.55a2.39,2.39,0,0,0,3.5-.79l.45-.82a2.39,2.39,0,0,1,2.52-1.2l.93.17a2.42,2.42,0,0,0,.43,0,2.39,2.39,0,0,0,2.38-2.27l0-.94a2.39,2.39,0,0,1,1.75-2.18l.91-.25a2.39,2.39,0,0,0,1.56-3.23l-.36-.87a2.39,2.39,0,0,1,.63-2.72l.71-.62a2.39,2.39,0,0,0,0-3.58ZM79.29,46.4l-2.91,2.89-2.89-2.91-2.79-2.8,2.91-2.89,2.79,2.8,6.67-6.63L86,39.77Zm2.65,20.78L62.35,65.6l-7-13.41a18.65,18.65,0,0,0-3-4.22h0a19.1,19.1,0,0,0-2.19-2,64.67,64.67,0,0,0-8.59-5.51l-4.59,22L34.65,47.91l1.55-2.49-2.28-2.9,6-3.85V36.21a9,9,0,0,0,1.15-3.1c.44,0,1-.65,1.64-2.85.85-3-.05-3.46-.82-3.38a7.9,7.9,0,0,0,.33-1.24c1.3-7.79-2.54-8.07-2.54-8.07a5.9,5.9,0,0,0-2.31-2.15,7.79,7.79,0,0,0-4.75-1,6.9,6.9,0,0,0-1.89.36h0a8.33,8.33,0,0,0-2.08,1.07,11.14,11.14,0,0,0-2.14,1.77,8.63,8.63,0,0,0-2.31,4.06,8.81,8.81,0,0,0,0,4h0a7.9,7.9,0,0,0,.33,1.24c-.77-.07-1.67.37-.82,3.38.62,2.2,1.2,2.82,1.64,2.85a9.22,9.22,0,0,0,1.15,3.14v2.41l6,3.85-2.28,2.9,1.55,2.49L29.55,62.53,25,40.49a64.8,64.8,0,0,0-8.42,5.38,18.92,18.92,0,0,0-5.63,7L7.5,60.13l-3.75,8A4.6,4.6,0,0,0,4,72.55l8.67,13.08H47.89l1-22.6L55.67,72a5.41,5.41,0,0,0,4.63,2.14l21.62-1.63a2.65,2.65,0,0,0,0-5.29Zm-68.81,4.1a1.55,1.55,0,0,1,0-1.62L18.28,62l1.07,19.63Z"/><text x="0" y="115" fill="#000000" font-size="5px" font-weight="bold" font-family="'Helvetica Neue', Helvetica, Arial-Unicode, Arial, Sans-serif"></text><text x="0" y="120" fill="#000000" font-size="5px" font-weight="bold" font-family="'Helvetica Neue', Helvetica, Arial-Unicode, Arial, Sans-serif"></text></svg>