<svg xmlns="http://www.w3.org/2000/svg" xmlns:xlink="http://www.w3.org/1999/xlink" version="1.1" x="0px" y="0px" viewBox="0 0 100 125" enable-background="new 0 0 100 100" xml:space="preserve"><g><path d="M17.332,12.868c0.519-4.625,3.12-8.527,6.773-10.773c0.001-0.002,0.002-0.002,0.004-0.004   c-0.025,0.009-0.05,0.019-0.074,0.027c-0.229,0.075-0.457,0.149-0.68,0.238c-0.164,0.064-0.322,0.141-0.482,0.212   c-0.206,0.092-0.412,0.183-0.613,0.284c-0.161,0.082-1.346,0.797-1.497,0.902c-0.177,0.123-0.813,0.609-0.954,0.729   c-0.164,0.138-1.181,1.123-1.325,1.284c-0.122,0.138-0.63,0.761-0.761,0.937c-0.107,0.147-0.56,0.822-0.675,1.015   c-0.093,0.153-0.483,0.878-0.583,1.087c-0.076,0.158-0.402,0.934-0.485,1.165c-0.057,0.157-0.317,0.999-0.385,1.269   c-0.034,0.138-0.265,1.244-0.313,1.672c-0.659,5.885,2.758,11.275,7.995,13.386C19.173,23.39,16.723,18.313,17.332,12.868z"/><path d="M40.833,8.505c-0.086,0.006-0.815,0.111-1.093,0.202c-0.016,0.005-0.028,0.015-0.044,0.02   c-1.274,0.43-2.228,1.362-2.737,2.503l3.713,0.283l4.432,0.339l0.551,0.042l-0.07-0.215c-0.092-0.279-0.441-0.938-0.487-1.012   c-0.104-0.166-0.391-0.559-0.423-0.594c-0.031-0.037-0.945-0.953-2.269-1.408C42.4,8.665,41.6,8.469,40.833,8.505z"/><path d="M31.168,27.322c0.014,0,0.029,0.003,0.044,0.003c0.805,0,1.595-0.082,2.364-0.234c0.122-0.023,0.24-0.061,0.361-0.088   c0.267-0.061,0.533-0.123,0.793-0.201c0.098-0.029,0.191-0.065,0.287-0.097c0.002-0.001,0.002-0.003,0.003-0.003   c0.749-1.372,1.765-2.576,2.972-3.553l-0.125-0.384l-0.003-0.011l-1.524-4.681l-5.236-0.399c-1.889-0.137-3.316-1.785-3.18-3.674   c0.127-1.789,1.632-3.19,3.425-3.19h0.001c0.082,0,0.164,0.003,0.254,0.009l3.78,0.289c0.092-0.263,0.195-0.523,0.323-0.775   c0.691-1.36,1.851-2.373,3.264-2.918c0.104-0.041,0.197-0.1,0.305-0.135c0.396-0.128,0.801-0.201,1.209-0.248   c0.23-0.025,0.46-0.055,0.691-0.055c0.13,0,0.255,0.023,0.383,0.031c-1.249-1.838-2.957-3.333-4.984-4.292   c-1.19-0.563-2.484-0.95-3.861-1.104c-0.446-0.05-0.89-0.072-1.329-0.074c-0.015,0-0.028-0.002-0.042-0.002   c-0.361,0-0.719,0.021-1.074,0.052c-0.032,0.003-0.065,0.001-0.098,0.005c-0.044,0.004-0.086,0.014-0.129,0.019   c-0.356,0.038-0.71,0.089-1.058,0.157c-0.134,0.026-0.264,0.065-0.396,0.097c-0.256,0.06-0.511,0.118-0.76,0.192   c-0.154,0.047-0.303,0.105-0.454,0.157c-0.222,0.076-0.444,0.151-0.661,0.24c-0.158,0.064-0.311,0.14-0.465,0.21   c-0.203,0.094-0.406,0.186-0.604,0.289c-0.155,0.082-0.306,0.172-0.457,0.26c-0.188,0.109-0.377,0.22-0.559,0.339   c-0.149,0.097-0.294,0.2-0.438,0.303c-0.176,0.126-0.35,0.253-0.519,0.388c-0.141,0.11-0.277,0.227-0.412,0.343   c-0.164,0.142-0.324,0.286-0.48,0.435c-0.13,0.125-0.258,0.251-0.382,0.381c-0.15,0.156-0.296,0.316-0.438,0.48   c-0.119,0.136-0.235,0.273-0.348,0.414c-0.137,0.171-0.268,0.348-0.396,0.527c-0.104,0.145-0.209,0.289-0.308,0.439   c-0.123,0.188-0.238,0.382-0.353,0.576c-0.09,0.152-0.181,0.305-0.264,0.461c-0.109,0.205-0.208,0.416-0.307,0.628   c-0.072,0.157-0.15,0.313-0.217,0.474c-0.095,0.226-0.176,0.459-0.258,0.692c-0.056,0.155-0.116,0.308-0.166,0.467   c-0.082,0.265-0.147,0.536-0.213,0.808c-0.033,0.136-0.074,0.268-0.104,0.405c-0.087,0.413-0.156,0.833-0.205,1.262   c-0.775,6.925,3.935,13.149,10.58,14.14c-0.035,0.004-0.069,0.012-0.104,0.016c0.038-0.004,0.074-0.01,0.112-0.014   c0.145,0.021,0.285,0.055,0.434,0.071C30.288,27.298,30.729,27.321,31.168,27.322z"/><path d="M39.278,22.254c0.405-0.247,0.824-0.473,1.259-0.671c0.474-0.216,0.959-0.407,1.463-0.561   c0.615-0.187,1.254-0.316,1.907-0.4c0.5-0.065,1.006-0.109,1.522-0.109c0.002,0,0.021,0,0.021,0   c1.082,0.001,2.137,0.157,3.152,0.438l-0.647-1.988l-3.3-0.252l-1.545-0.118h-0.004l-1.224-0.094l-1.534-0.117l-0.006-0.001   l-2.387-0.182l1.004,3.082l0.005,0.014L39.278,22.254z"/><path d="M40.36,73.292c-0.028-0.099-0.052-0.196-0.073-0.294l-0.021-0.097l-0.032-0.137c-0.028-0.139-0.053-0.28-0.071-0.407   c-0.018-0.112-0.033-0.223-0.047-0.348c-0.008-0.087-0.014-0.175-0.019-0.258c-0.011-0.161-0.017-0.32-0.016-0.5l0.003-0.106   c0.02-0.867,0.217-1.703,0.538-2.484c0.672-1.633,1.937-3.003,3.613-3.762l4.937-2.045c-1.301-1.261-2.453-2.722-3.311-3.915   L32.96,64.783c-1.701,0.771-2.81,2.304-3.127,4.01c-0.003,0.014-0.007,0.026-0.01,0.04c-0.05,0.28-0.084,0.564-0.09,0.852   c-0.001,0.027-0.002,0.055-0.002,0.082c-0.001,0.131,0.005,0.263,0.013,0.395c0.004,0.065,0.008,0.13,0.015,0.195   c0.009,0.093,0.022,0.185,0.036,0.277c0.017,0.105,0.033,0.21,0.056,0.314c0.011,0.049,0.022,0.098,0.034,0.146   c0.022,0.093,0.039,0.186,0.066,0.277L36.266,93c0.852,2.918,3.908,4.59,6.821,3.74c1.491-0.437,2.653-1.449,3.324-2.723   l-5.995-20.533L40.36,73.292z"/><path d="M46.345,42.673c0.044-0.004,0.09-0.002,0.134-0.007c0.188-0.019,0.369-0.055,0.553-0.083   c0.158-0.025,0.318-0.041,0.475-0.072c0.123-0.025,0.24-0.063,0.361-0.093c0,0,0.001-0.001,0.002-0.001   c1.461-0.654,3.276-2.205,4.867-5.047c0.203-0.362,0.452-0.869,0.733-1.477c0.274-0.592,0.581-1.286,0.909-2.053   c0.397-0.928,0.826-1.959,1.271-3.052c-0.454-2.969-2.162-5.521-4.575-7.097c-0.592-0.386-1.227-0.709-1.894-0.969   c-1.158-0.451-2.413-0.709-3.731-0.711c-0.006,0-0.013,0-0.02,0c-0.178,0-0.878,0.035-1.049,0.053   c-0.182,0.018-1.275,0.221-1.4,0.25c-0.053,0.014-0.105,0.027-0.159,0.041c-0.153,0.04-1.27,0.405-1.412,0.465   c-0.161,0.068-0.765,0.359-0.905,0.436c-0.123,0.066-0.238,0.145-0.358,0.216c0.004-0.004,0.008-0.008,0.011-0.013   c-0.004,0.006-0.301,0.184-0.403,0.25c-0.034,0.022-0.394,0.279-0.539,0.389c-0.12,0.09-0.6,0.485-0.719,0.594   c-0.014,0.012-0.593,0.578-0.7,0.695c-0.002,0.003-0.006,0.006-0.008,0.01c-0.007,0.007-0.014,0.015-0.021,0.021   c-0.105,0.117-0.217,0.229-0.318,0.351c-0.105,0.128-0.503,0.658-0.596,0.796c-0.097,0.142-0.18,0.293-0.27,0.44   c-0.083,0.138-0.486,0.899-0.496,0.92c-0.063,0.132-0.326,0.759-0.393,0.942c-0.048,0.135-0.104,0.266-0.147,0.402   c-0.069,0.22-0.12,0.446-0.174,0.672c-0.026,0.107-0.061,0.211-0.083,0.32c-0.049,0.239-0.08,0.485-0.113,0.73   c-0.013,0.1-0.035,0.196-0.045,0.297c-0.036,0.348-0.055,0.7-0.055,1.057c-0.006,3.05,1.314,5.785,3.41,7.684   c1.35,1.222,3.014,2.101,4.867,2.478c0.377,0.077,0.763,0.128,1.152,0.163c0.299,0.027,0.601,0.047,0.906,0.048   c0.006,0,0.012,0,0.018,0c0.183,0,0.36-0.019,0.541-0.027c0.119-0.006,0.241-0.007,0.36-0.018c-0.001,0-0.001,0-0.001-0.001   C46.335,42.673,46.34,42.673,46.345,42.673L46.345,42.673z"/><path d="M63.339,44.782l4.656-14.297c-1.118-0.771-2.146-1.688-3.041-2.758c-1.867-2.236-3.013-4.902-3.373-7.724l-0.103-0.008   c-1.123,2.956-2.771,7.241-4.286,10.978c-0.672,1.654-2.039,4.836-2.116,5.008c-0.362,0.805-0.681,1.469-0.941,1.953   c-0.026,0.048-0.08,0.15-0.081,0.152c-0.018,0.025-0.018,0.027-0.001,0.002c-0.003,0.005-0.005,0.01-0.008,0.014   c-1.709,3.055-3.764,4.914-5.653,5.723c-0.077,0.033-0.154,0.066-0.231,0.096c-0.003,0.002-0.758,0.267-1.115,0.326   c-0.35,0.058-1.145,0.082-1.148,0.082c-0.201-0.001-1.114-0.059-1.308-0.08c-0.017-0.002-1.229-0.186-1.257-0.19   c-0.156-0.029-0.438-0.087-0.441-0.088c-0.133-0.028-0.373-0.083-0.387-0.087c-0.092-0.021-0.233-0.057-0.246-0.06   c-0.037-0.01-0.064-0.017-0.064-0.017s0.033,2.174,0.561,4.656s1.27,3.955,1.27,3.955l0.001-0.002   c0.282,1.025,0.785,2.149,1.565,3.399c0,0,0.648,1.093,1.668,2.49c1.214,1.662,2.957,3.758,4.79,4.98l-7.239,2.998   c-1.99,0.902-3.179,2.846-3.225,4.895c-0.002,0.031,0.047,0.859,0.061,0.947c0.004,0.027,0.01,0.056,0.014,0.083   c0.014,0.082,0.064,0.333,0.074,0.376c0.021,0.091,0.039,0.182,0.064,0.272c0.002,0.005,0.002,0.01,0.004,0.015l5.176,17.729   l1.139,3.899c0.079,0.271,0.183,0.525,0.297,0.773c0.022,0.048,0.043,0.096,0.066,0.143c0.117,0.234,0.249,0.459,0.396,0.67   c0.027,0.04,0.396,0.517,0.571,0.697c0.01,0.011,0.41,0.387,0.617,0.544c0.039,0.03,0.541,0.374,0.766,0.492   c0.035,0.02,0.831,0.358,0.855,0.366c0.243,0.08,0.853,0.203,0.905,0.211c0.254,0.038,0.794,0.065,0.806,0.065   c0.033,0,0.787-0.063,0.852-0.072c0.229-0.036,0.461-0.082,0.69-0.149c2.917-0.852,4.592-3.906,3.741-6.824L53.691,74.34   l16.184-7.328c2.767-1.252,4.294-6.898,0.958-10.115C64.907,51.185,63.339,44.782,63.339,44.782z"/><path d="M31.489,12.315c-0.048-0.004-0.392,0.016-0.45,0.025c-0.066,0.01-0.305,0.073-0.357,0.094   c-0.063,0.022-0.281,0.129-0.33,0.157c-0.057,0.034-0.506,0.438-0.538,0.48c-0.044,0.058-0.173,0.266-0.194,0.31   c-0.037,0.073-0.123,0.307-0.134,0.348c-0.034,0.121-0.057,0.248-0.065,0.378c-0.077,1.066,0.725,1.993,1.792,2.071l9.524,0.728   l8.335,0.637l11.401,0.872l0.991,0.075c-0.016-0.587-0.009-1.178,0.045-1.772c0.048-0.535,0.309-1.913,0.348-2.081L47.773,13.56   l-12.711-0.971L31.489,12.315z"/><path d="M68.978,27.468c-1.628-2.032-2.728-4.482-3.133-7.139c-0.076-0.498-0.127-1.004-0.152-1.516   c-0.034-0.69-0.039-1.387,0.024-2.096c0.054-0.602,0.153-1.188,0.273-1.766c0.104-0.502,0.234-0.993,0.386-1.475   c0.021-0.066,0.046-0.133,0.067-0.199c0.002-0.006,0.004-0.012,0.006-0.018c0.178-0.535,0.382-1.057,0.614-1.561   c1.35-2.927,3.591-5.313,6.377-6.843c0.007-0.003,0.013-0.007,0.02-0.011c-0.079,0.018-0.155,0.043-0.233,0.063   c-0.226,0.057-0.451,0.112-0.672,0.18c-0.192,0.059-0.381,0.127-0.57,0.195c-0.213,0.076-0.427,0.152-0.636,0.238   c-0.187,0.078-0.369,0.162-0.552,0.248c-0.202,0.094-0.955,0.49-1.128,0.592c-0.192,0.112-0.901,0.574-1.064,0.691   c-0.181,0.13-0.842,0.654-0.992,0.786c-0.169,0.147-0.778,0.73-0.916,0.874c-0.156,0.164-0.71,0.803-0.832,0.958   c-0.143,0.181-0.276,0.368-0.409,0.556c-0.113,0.158-0.578,0.883-0.695,1.086c-0.096,0.166-0.898,1.871-0.936,1.969   c-0.055,0.146-0.27,0.771-0.319,0.941c-0.051,0.173-0.187,0.749-0.211,0.859c-0.032,0.145-0.074,0.284-0.103,0.43   c-0.006,0.035-0.012,0.07-0.018,0.105c-0.001,0.004-0.001,0.008-0.002,0.012c-0.073,0.401-0.132,0.809-0.169,1.223   c-0.053,0.592-0.054,1.175-0.031,1.753c0.02,0.513,0.07,1.018,0.146,1.516c0.55,3.593,2.518,6.761,5.366,8.862   c0.416,0.307,0.849,0.591,1.301,0.85c1.143,0.654,2.392,1.147,3.724,1.449c-1.245-0.682-2.382-1.528-3.377-2.515   C69.72,28.358,69.34,27.921,68.978,27.468z"/><path d="M83.746,4.847c-0.59-0.135-1.188-0.244-1.807-0.3c-0.413-0.037-0.822-0.056-1.229-0.056c-0.028,0-0.056,0.004-0.083,0.004   c-0.181,0.002-0.358,0.018-0.537,0.026c-0.264,0.012-0.528,0.021-0.788,0.049c-0.189,0.02-0.375,0.053-0.563,0.081   c-0.044,0.006-0.088,0.012-0.131,0.018c-0.201,0.032-0.402,0.061-0.6,0.102c-0.19,0.039-0.376,0.089-0.563,0.136   c-0.231,0.058-0.463,0.114-0.689,0.185c-0.188,0.057-0.371,0.124-0.556,0.189c-0.219,0.078-0.437,0.156-0.65,0.244   c-0.182,0.076-0.36,0.159-0.539,0.242c-0.207,0.097-0.413,0.195-0.615,0.302c-0.174,0.093-0.345,0.19-0.514,0.29   c-0.196,0.114-0.39,0.232-0.58,0.357c-0.164,0.107-0.326,0.22-0.486,0.334c-0.184,0.133-0.363,0.27-0.54,0.41   c-0.154,0.123-0.306,0.248-0.454,0.377c-0.171,0.148-0.337,0.303-0.5,0.461c-0.142,0.135-0.281,0.272-0.417,0.414   c-0.157,0.166-0.309,0.338-0.458,0.511c-0.127,0.147-0.254,0.294-0.375,0.448c-0.144,0.182-0.278,0.371-0.413,0.561   c-0.111,0.156-0.225,0.313-0.329,0.475c-0.129,0.199-0.247,0.406-0.365,0.612c-0.095,0.164-0.192,0.327-0.28,0.495   c-0.01,0.02-0.021,0.037-0.031,0.057c-0.103,0.199-0.19,0.406-0.283,0.611c-0.076,0.169-0.157,0.334-0.227,0.507   c-0.036,0.09-0.069,0.181-0.104,0.272c-0.002,0.004-0.003,0.009-0.005,0.014c-0.04,0.105-0.072,0.215-0.109,0.322   c-0.016,0.043-0.029,0.086-0.044,0.129c-0.057,0.166-0.119,0.328-0.169,0.498c-0.081,0.275-0.144,0.561-0.208,0.845   c-0.001,0.004-0.002,0.008-0.003,0.012c-0.032,0.146-0.074,0.286-0.103,0.433c-0.083,0.439-0.147,0.886-0.188,1.34   c-0.063,0.703-0.054,1.394-0.011,2.076c0.032,0.514,0.092,1.02,0.181,1.518c0.343,1.926,1.082,3.729,2.159,5.295   c0.339,0.494,0.721,0.955,1.121,1.4c2.025,2.245,4.796,3.818,7.974,4.314c0.003,0,0.006,0,0.009,0   c0.291,0.046,0.579,0.098,0.877,0.124c0.412,0.037,0.82,0.055,1.226,0.055c0.027,0,0.054-0.004,0.081-0.004   c0.188-0.001,0.371-0.018,0.557-0.026c0.258-0.012,0.516-0.021,0.77-0.048c0.192-0.021,0.381-0.054,0.571-0.082   c0.241-0.036,0.483-0.069,0.721-0.118c0.116-0.023,0.231-0.051,0.346-0.077c0.076-0.018,0.148-0.041,0.224-0.06   c0.229-0.058,0.459-0.115,0.685-0.184c0.188-0.058,0.372-0.125,0.556-0.19c0.219-0.077,0.438-0.156,0.651-0.245   c0.182-0.074,0.359-0.158,0.538-0.24c0.207-0.098,0.413-0.195,0.615-0.303c0.174-0.092,0.345-0.189,0.514-0.289   c0.196-0.115,0.391-0.234,0.581-0.358c0.164-0.107,0.325-0.22,0.484-0.333c0.184-0.133,0.365-0.27,0.542-0.412   c0.153-0.122,0.305-0.246,0.452-0.375c0.172-0.149,0.339-0.305,0.503-0.463c0.14-0.135,0.279-0.271,0.414-0.412   c0.158-0.166,0.311-0.339,0.46-0.514c0.126-0.146,0.253-0.293,0.373-0.445c0.145-0.183,0.28-0.372,0.415-0.563   c0.11-0.156,0.224-0.312,0.327-0.473c0.13-0.2,0.248-0.408,0.367-0.615c0.094-0.164,0.191-0.325,0.278-0.493   c0.114-0.219,0.215-0.446,0.316-0.673c0.076-0.166,0.156-0.33,0.226-0.502c0.098-0.242,0.179-0.492,0.263-0.742   c0.056-0.164,0.118-0.325,0.168-0.492c0.083-0.283,0.146-0.573,0.211-0.863c0.032-0.143,0.074-0.282,0.102-0.428   c0.083-0.439,0.147-0.885,0.188-1.34C94.859,12.427,90.268,6.327,83.746,4.847z"/></g><text x="0" y="115" fill="#000000" font-size="5px" font-weight="bold" font-family="'Helvetica Neue', Helvetica, Arial-Unicode, Arial, Sans-serif"></text><text x="0" y="120" fill="#000000" font-size="5px" font-weight="bold" font-family="'Helvetica Neue', Helvetica, Arial-Unicode, Arial, Sans-serif"></text></svg>