<svg xmlns="http://www.w3.org/2000/svg" xmlns:xlink="http://www.w3.org/1999/xlink" version="1.1" x="0px" y="0px" viewBox="0 0 100 125" enable-background="new 0 0 100 100" xml:space="preserve"><g><g><path d="M58.917,19.805c0.563-3.554,2.324-8.047,5.804-10.83c4.715-3.772-3.143-3.458-8.486-2.829    c-5.343,0.629-16.973-2.515-19.486-0.315c-2.516,2.2-1.572,5.659,1.256,7.544c1.649,1.1,3.613,4.116,4.971,6.445    C26.92,25.619,14.93,48.49,14.93,75.839c0,3.491,0.205,6.903,0.58,10.222c0.683,2.274,2.852,7.545,8.309,7.545    c6.952,0,53.363,0,53.363,0s7.685-0.244,9.135-6.597c0.097-0.781,0.188-1.563,0.264-2.354c0.008-0.349,0.033-0.653,0.075-0.921    c0.224-2.582,0.348-5.215,0.348-7.896C87.003,48.467,74.991,25.579,58.917,19.805z M60.609,73.09    c-2.163,2.274-4.965,3.491-8.403,3.654v4.968h-2.892V76.8c-2.455-0.31-4.452-0.861-5.989-1.652    c-1.536-0.791-2.864-2.07-3.983-3.832c-1.117-1.764-1.768-3.92-1.951-6.465l4.938-0.929c0.382,2.639,1.055,4.573,2.021,5.812    c1.382,1.745,3.038,2.718,4.965,2.917V57.02c-2.018-0.382-4.084-1.163-6.192-2.348c-1.563-0.873-2.771-2.082-3.614-3.627    c-0.847-1.547-1.27-3.303-1.27-5.267c0-3.491,1.235-6.319,3.709-8.485c1.655-1.456,4.112-2.346,7.367-2.673v-2.346h2.892v2.346    c2.856,0.273,5.12,1.109,6.794,2.51c2.147,1.782,3.438,4.228,3.873,7.339l-5.074,0.764c-0.291-1.929-0.895-3.406-1.814-4.434    c-0.917-1.027-2.179-1.708-3.778-2.032v14.159c2.475,0.618,4.109,1.101,4.913,1.446c1.524,0.672,2.771,1.491,3.736,2.456    c0.963,0.963,1.706,2.109,2.224,3.437c0.518,1.328,0.779,2.762,0.779,4.309C63.858,67.98,62.772,70.816,60.609,73.09z"/><path d="M52.206,57.702v14.95c1.911-0.236,3.489-1.063,4.733-2.483c1.247-1.417,1.87-3.173,1.87-5.263    c0-1.783-0.442-3.216-1.322-4.297C56.603,59.524,54.843,58.557,52.206,57.702z"/><path d="M43.148,45.398c0,1.671,0.468,3.073,1.404,4.199c0.938,1.13,2.523,2.03,4.762,2.703V38.712    c-1.91,0.291-3.415,1.055-4.516,2.293C43.697,42.24,43.148,43.706,43.148,45.398z"/></g></g><text x="0" y="115" fill="#000000" font-size="5px" font-weight="bold" font-family="'Helvetica Neue', Helvetica, Arial-Unicode, Arial, Sans-serif"></text><text x="0" y="120" fill="#000000" font-size="5px" font-weight="bold" font-family="'Helvetica Neue', Helvetica, Arial-Unicode, Arial, Sans-serif"></text></svg>